<svg width="633" height="91" viewBox="0 0 633 91" fill="none" xmlns="http://www.w3.org/2000/svg">
<path d="M0.496 89V0.167999H8.944L46.576 61.992H40.816L78.448 0.167999H86.896V89H74.864V21.288L77.68 22.056L47.984 70.824H39.536L9.84 22.056L12.528 21.288V89H0.496ZM133.599 90.28C127.626 90.28 122.25 88.872 117.471 86.056C112.692 83.24 108.895 79.4427 106.079 74.664C103.263 69.8 101.855 64.3813 101.855 58.408C101.855 52.52 103.263 47.2293 106.079 42.536C108.895 37.7573 112.692 33.96 117.471 31.144C122.25 28.328 127.626 26.92 133.599 26.92C139.487 26.92 144.82 28.328 149.599 31.144C154.463 33.8747 158.303 37.6293 161.119 42.408C163.935 47.1867 165.343 52.52 165.343 58.408C165.343 64.3813 163.935 69.8 161.119 74.664C158.303 79.4427 154.463 83.24 149.599 86.056C144.82 88.872 139.487 90.28 133.599 90.28ZM133.599 79.144C137.439 79.144 140.852 78.248 143.839 76.456C146.826 74.664 149.172 72.232 150.879 69.16C152.586 66.0027 153.439 62.4187 153.439 58.408C153.439 54.4827 152.543 50.984 150.751 47.912C149.044 44.84 146.698 42.4507 143.711 40.744C140.81 38.952 137.439 38.056 133.599 38.056C129.759 38.056 126.346 38.952 123.359 40.744C120.372 42.4507 118.026 44.84 116.319 47.912C114.612 50.984 113.759 54.4827 113.759 58.408C113.759 62.4187 114.612 66.0027 116.319 69.16C118.026 72.232 120.372 74.664 123.359 76.456C126.346 78.248 129.759 79.144 133.599 79.144ZM178.323 89V28.2H189.843V89H178.323ZM219.411 89V52.264C219.411 47.7413 218.003 44.2 215.187 41.64C212.456 38.9947 209 37.672 204.819 37.672C202.003 37.672 199.486 38.2693 197.267 39.464C195.048 40.6587 193.256 42.3227 191.891 44.456C190.526 46.5893 189.843 49.1493 189.843 52.136L185.107 49.832C185.107 45.224 186.088 41.2133 188.051 37.8C190.099 34.3867 192.872 31.7413 196.371 29.864C199.87 27.9013 203.795 26.92 208.147 26.92C212.414 26.92 216.254 27.8587 219.667 29.736C223.166 31.6133 225.896 34.2587 227.859 37.672C229.907 41.0853 230.931 45.1387 230.931 49.832V89H219.411ZM260.499 89V52.264C260.499 47.7413 259.091 44.2 256.275 41.64C253.544 38.9947 250.131 37.672 246.035 37.672C243.219 37.672 240.659 38.2693 238.355 39.464C236.136 40.6587 234.344 42.3227 232.979 44.456C231.614 46.5893 230.931 49.1493 230.931 52.136L224.403 49.832C224.659 45.1387 225.896 41.128 228.115 37.8C230.419 34.3867 233.363 31.7413 236.947 29.864C240.531 27.9013 244.456 26.92 248.723 26.92C253.16 26.92 257.128 27.8587 260.627 29.736C264.126 31.6133 266.899 34.2587 268.947 37.672C271.08 41.0853 272.147 45.1813 272.147 49.96V89H260.499ZM315.983 90.28C309.924 90.28 304.463 88.9147 299.599 86.184C294.735 83.368 290.895 79.5707 288.079 74.792C285.263 70.0133 283.855 64.5947 283.855 58.536C283.855 52.5627 285.22 47.1867 287.951 42.408C290.767 37.6293 294.522 33.8747 299.215 31.144C303.994 28.328 309.327 26.92 315.215 26.92C320.847 26.92 325.796 28.2 330.063 30.76C334.415 33.32 337.786 36.8613 340.175 41.384C342.65 45.9067 343.887 51.0267 343.887 56.744C343.887 57.5973 343.844 58.536 343.759 59.56C343.674 60.4987 343.503 61.608 343.247 62.888H291.919V53.288H337.103L332.879 57C332.879 52.904 332.154 49.448 330.703 46.632C329.252 43.7307 327.204 41.512 324.559 39.976C321.914 38.3547 318.714 37.544 314.959 37.544C311.034 37.544 307.578 38.3973 304.591 40.104C301.604 41.8107 299.3 44.2 297.679 47.272C296.058 50.344 295.247 53.9707 295.247 58.152C295.247 62.4187 296.1 66.1733 297.807 69.416C299.514 72.5733 301.946 75.048 305.103 76.84C308.26 78.5467 311.887 79.4 315.983 79.4C319.396 79.4 322.511 78.8027 325.327 77.608C328.228 76.4133 330.703 74.6213 332.751 72.232L340.175 79.784C337.274 83.1973 333.69 85.8 329.423 87.592C325.242 89.384 320.762 90.28 315.983 90.28ZM399.456 89V53.544C399.456 48.936 398.005 45.1387 395.104 42.152C392.203 39.1653 388.448 37.672 383.84 37.672C380.768 37.672 378.037 38.3547 375.648 39.72C373.259 41.0853 371.381 42.9627 370.016 45.352C368.651 47.7413 367.968 50.472 367.968 53.544L363.232 50.856C363.232 46.248 364.256 42.152 366.304 38.568C368.352 34.984 371.211 32.168 374.88 30.12C378.549 27.9867 382.688 26.92 387.296 26.92C391.904 26.92 395.957 28.072 399.456 30.376C403.04 32.68 405.856 35.7093 407.904 39.464C409.952 43.1333 410.976 47.0587 410.976 51.24V89H399.456ZM356.448 89V28.2H367.968V89H356.448ZM435.167 89V2.728H446.687V89H435.167ZM420.191 38.696V28.2H461.663V38.696H420.191ZM497.396 90.28C492.447 90.28 487.967 89.1707 483.956 86.952C480.031 84.648 476.959 81.4907 474.74 77.48C472.521 73.4693 471.412 68.8187 471.412 63.528V28.2H482.932V63.016C482.932 66.344 483.487 69.2453 484.596 71.72C485.791 74.1093 487.497 75.944 489.716 77.224C491.935 78.504 494.537 79.144 497.524 79.144C502.047 79.144 505.588 77.736 508.148 74.92C510.708 72.0187 511.988 68.0507 511.988 63.016V28.2H523.508V63.528C523.508 68.8187 522.399 73.4693 520.18 77.48C517.961 81.4907 514.889 84.648 510.964 86.952C507.124 89.1707 502.601 90.28 497.396 90.28ZM538.948 89V28.2H550.468V89H538.948ZM580.036 89V52.264C580.036 47.7413 578.628 44.2 575.812 41.64C573.081 38.9947 569.625 37.672 565.444 37.672C562.628 37.672 560.111 38.2693 557.892 39.464C555.673 40.6587 553.881 42.3227 552.516 44.456C551.151 46.5893 550.468 49.1493 550.468 52.136L545.732 49.832C545.732 45.224 546.713 41.2133 548.676 37.8C550.724 34.3867 553.497 31.7413 556.996 29.864C560.495 27.9013 564.42 26.92 568.772 26.92C573.039 26.92 576.879 27.8587 580.292 29.736C583.791 31.6133 586.521 34.2587 588.484 37.672C590.532 41.0853 591.556 45.1387 591.556 49.832V89H580.036ZM621.124 89V52.264C621.124 47.7413 619.716 44.2 616.9 41.64C614.169 38.9947 610.756 37.672 606.66 37.672C603.844 37.672 601.284 38.2693 598.98 39.464C596.761 40.6587 594.969 42.3227 593.604 44.456C592.239 46.5893 591.556 49.1493 591.556 52.136L585.028 49.832C585.284 45.1387 586.521 41.128 588.74 37.8C591.044 34.3867 593.988 31.7413 597.572 29.864C601.156 27.9013 605.081 26.92 609.348 26.92C613.785 26.92 617.753 27.8587 621.252 29.736C624.751 31.6133 627.524 34.2587 629.572 37.672C631.705 41.0853 632.772 45.1813 632.772 49.96V89H621.124Z" fill="url(#paint0_linear_70_91)"/>
<defs>
<linearGradient id="paint0_linear_70_91" x1="-10" y1="41.5" x2="640" y2="41.5" gradientUnits="userSpaceOnUse">
<stop stop-color="#40A3BC"/>
<stop offset="1" stop-color="#245A68"/>
</linearGradient>
</defs>
</svg>
